<?xml version="1.0" encoding="UTF-8"?>
<svg width="256" height="256" viewBox="0 0 256 256" fill="none" xmlns="http://www.w3.org/2000/svg">
  <rect x="14" y="14" width="228" height="228" rx="48" fill="#E9F2FF"/>
  <path d="M128 60L76 80V120C76 164.081 96.8249 205.046 128 224C159.175 205.046 180 164.081 180 120V80L128 60Z" fill="#1F7AE0"/>
  <path d="M128 86L156 96V120C156 150.288 143.765 178.298 128 193.25C112.235 178.298 100 150.288 100 120V96L128 86Z" fill="#5FA6F5"/>
  <rect x="114" y="122" width="28" height="40" rx="14" fill="white"/>
  <path d="M128 112C134.627 112 140 117.373 140 124C140 130.627 134.627 136 128 136C121.373 136 116 130.627 116 124C116 117.373 121.373 112 128 112Z" fill="white"/>
</svg>

