<?xml version="1.0" encoding="UTF-8"?>
<svg width="256" height="256" viewBox="0 0 256 256" fill="none" xmlns="http://www.w3.org/2000/svg">
  <rect x="14" y="14" width="228" height="228" rx="48" fill="#FFF4E2"/>
  <path d="M148 68H108C104.686 68 102 70.6863 102 74V84C102 87.3137 104.686 90 108 90H112V120.098L78.3536 177.531C72.0306 188.31 79.7297 202 92.4922 202H163.508C176.27 202 183.969 188.31 177.646 177.531L144 120.098V90H148C151.314 90 154 87.3137 154 84V74C154 70.6863 151.314 68 148 68Z" fill="#FFB020"/>
  <path d="M112 136H144L170 180C172.209 183.688 169.531 188 165.284 188H90.7162C86.4687 188 83.7908 183.688 86.0001 180L112 136Z" fill="#FFD48A"/>
  <rect x="118" y="96" width="20" height="24" rx="6" fill="white" opacity="0.65"/>
  <circle cx="128" cy="160" r="10" fill="#FFB020"/>
  <path d="M128 170C135.732 170 142 176.268 142 184H114C114 176.268 120.268 170 128 170Z" fill="#F28F16"/>
</svg>

